<svg width="151" height="121" viewBox="0 0 151 121" fill="none" xmlns="http://www.w3.org/2000/svg">
<path d="M26.8661 62.2284C26.8235 61.7987 26.6406 61.4649 26.3174 61.227C25.9943 60.989 25.5557 60.8701 25.0017 60.8701C24.6253 60.8701 24.3075 60.9233 24.0483 61.0299C23.789 61.1329 23.5902 61.2767 23.4517 61.4613C23.3167 61.646 23.2493 61.8555 23.2493 62.0899C23.2422 62.2852 23.283 62.4557 23.3718 62.6013C23.4641 62.7469 23.5902 62.8729 23.75 62.9795C23.9098 63.0824 24.0944 63.173 24.3039 63.2511C24.5135 63.3257 24.7372 63.3896 24.9751 63.4429L25.9552 63.6773C26.4311 63.7838 26.8679 63.9258 27.2656 64.1034C27.6633 64.281 28.0078 64.4993 28.299 64.7586C28.5902 65.0178 28.8157 65.3232 28.9755 65.6748C29.1388 66.0263 29.2223 66.4294 29.2258 66.8839C29.2223 67.5515 29.0518 68.1304 28.7145 68.6204C28.3807 69.1069 27.8977 69.4851 27.2656 69.755C26.637 70.0214 25.8789 70.1545 24.9911 70.1545C24.1104 70.1545 23.3434 70.0196 22.69 69.7497C22.0401 69.4798 21.5323 69.0803 21.1665 68.5512C20.8043 68.0185 20.6143 67.3598 20.5966 66.575H22.8284C22.8533 66.9407 22.9581 67.2461 23.1427 67.4912C23.3309 67.7327 23.5813 67.9155 23.8938 68.0398C24.2098 68.1606 24.5667 68.2209 24.9645 68.2209C25.3551 68.2209 25.6942 68.1641 25.9819 68.0505C26.2731 67.9368 26.4985 67.7788 26.6583 67.5764C26.8182 67.374 26.8981 67.1414 26.8981 66.8786C26.8981 66.6336 26.8253 66.4276 26.6797 66.2607C26.5376 66.0938 26.3281 65.9518 26.0511 65.8346C25.7777 65.7174 25.4421 65.6108 25.0444 65.515L23.8565 65.2167C22.9368 64.993 22.2106 64.6432 21.6779 64.1673C21.1452 63.6915 20.8807 63.0505 20.8842 62.2444C20.8807 61.5839 21.0564 61.0068 21.4115 60.5132C21.7702 60.0196 22.262 59.6343 22.887 59.3573C23.512 59.0803 24.2223 58.9418 25.0177 58.9418C25.8274 58.9418 26.5341 59.0803 27.1378 59.3573C27.745 59.6343 28.2173 60.0196 28.5547 60.5132C28.892 61.0068 29.066 61.5785 29.0767 62.2284H26.8661Z" fill="white"/>
<path d="M32.4085 70.0001H29.9369L33.7029 59.091H36.6752L40.4359 70.0001H37.9643L35.2317 61.5839H35.1465L32.4085 70.0001ZM32.2541 65.7121H38.0921V67.5125H32.2541V65.7121Z" fill="white"/>
<path d="M42.3575 59.091L44.9942 67.3793H45.0954L47.7375 59.091H50.2943L46.5336 70.0001H43.5613L39.7953 59.091H42.3575Z" fill="white"/>
<path d="M51.6073 70.0001V59.091H58.9582V60.9926H53.9138V63.592H58.58V65.4937H53.9138V68.0984H58.9795V70.0001H51.6073Z" fill="white"/>
<path d="M63.8481 60.9926V59.091H72.8076V60.9926H69.4677V70.0001H67.1879V60.9926H63.8481Z" fill="white"/>
<path d="M74.2831 70.0001V59.091H76.5895V63.592H81.2717V59.091H83.5729V70.0001H81.2717V65.4937H76.5895V70.0001H74.2831Z" fill="white"/>
<path d="M85.4745 70.0001V59.091H92.8253V60.9926H87.781V63.592H92.4471V65.4937H87.781V68.0984H92.8466V70.0001H85.4745Z" fill="white"/>
<path d="M101.998 70.0001H98.1307V59.091H102.03C103.127 59.091 104.072 59.3094 104.864 59.7461C105.656 60.1794 106.265 60.8026 106.691 61.6158C107.12 62.429 107.335 63.402 107.335 64.5349C107.335 65.6712 107.12 66.6478 106.691 67.4645C106.265 68.2813 105.652 68.9081 104.853 69.3449C104.058 69.7817 103.106 70.0001 101.998 70.0001ZM100.437 68.0238H101.902C102.584 68.0238 103.157 67.9031 103.623 67.6616C104.091 67.4166 104.443 67.0384 104.677 66.527C104.915 66.0121 105.034 65.3481 105.034 64.5349C105.034 63.7287 104.915 63.07 104.677 62.5586C104.443 62.0473 104.093 61.6709 103.628 61.4294C103.163 61.1879 102.589 61.0672 101.907 61.0672H100.437V68.0238Z" fill="white"/>
<path d="M110.309 70.0001H107.837L111.603 59.091H114.576L118.336 70.0001H115.865L113.132 61.5839H113.047L110.309 70.0001ZM110.154 65.7121H115.993V67.5125H110.154V65.7121Z" fill="white"/>
<path d="M117.901 60.9926V59.091H126.86V60.9926H123.52V70.0001H121.241V60.9926H117.901Z" fill="white"/>
<path d="M128.336 70.0001V59.091H135.687V60.9926H130.642V63.592H135.308V65.4937H130.642V68.0984H135.708V70.0001H128.336Z" fill="white"/>
<path d="M34.5765 42.0039C35.5366 42.4398 36.1003 42.9334 36.2676 43.4845C36.3791 43.852 36.0675 44.1472 35.3326 44.3703C34.5977 44.5934 33.5924 44.7105 32.3166 44.7216C32.132 43.1223 32.029 40.4698 32.0076 36.7642C32.0273 35.755 32.0531 34.5181 32.0851 33.0537C32.1101 31.5663 32.1457 29.8249 32.192 27.8293C32.1891 27.6546 31.8978 27.4797 31.3179 27.3046C30.738 27.1295 30.2529 27.1013 29.8625 27.2198C29.6788 27.2756 29.5469 27.3783 29.4669 27.528C29.1147 28.7636 28.6286 30.1778 28.0085 31.7706C27.3885 33.3634 26.6645 35.1508 25.8366 37.1328C24.3197 40.7285 23.1079 43.429 22.2013 45.2342C16.426 45.7084 11.793 46.4754 8.30228 47.5351C7.52147 47.7722 6.82001 48.0227 6.19791 48.2868C5.5918 48.521 5.04556 48.7872 4.5592 49.0853C2.2053 50.5022 0.908013 52.7145 0.667345 55.7221C0.568939 56.5546 0.55542 57.3362 0.62679 58.067C0.69816 58.7978 0.827967 59.4732 1.01621 60.0933C1.45545 61.5401 2.19096 62.5583 3.22277 63.148C4.27753 63.7307 5.52483 63.791 6.96465 63.3288C9.86726 62.3974 13.0676 59.7203 16.5656 55.2974C17.8085 53.691 18.9172 52.138 19.8915 50.6383C20.8819 49.1086 21.7504 47.5908 22.4972 46.085C24.1474 45.9853 25.7067 45.8756 27.1753 45.7558C28.6438 45.636 30.0365 45.5142 31.3533 45.3903C31.5452 46.4356 31.7357 47.3936 31.9248 48.2642C32.1368 49.1279 32.3509 49.9156 32.5671 50.6276C33.1457 52.5337 33.7338 53.8099 34.3313 54.4561C34.3822 54.541 34.488 54.5591 34.6488 54.5103C35.0621 54.3848 35.2395 54.1428 35.1808 53.7844C35.1739 53.7614 35.129 53.7374 35.0461 53.7124C34.9633 53.6874 34.869 53.6659 34.7631 53.6479C34.6573 53.6298 34.5515 53.6118 34.4457 53.5937C34.3629 53.5687 34.318 53.5447 34.311 53.5218C34.0039 53.0883 33.7283 52.4697 33.4842 51.6659C33.2472 50.8851 33.0442 49.9685 32.8752 48.9162C32.7062 47.864 32.5493 46.645 32.4046 45.2593C33.5237 45.1452 34.4072 45.04 35.0552 44.9436C35.7191 44.8173 36.16 44.6584 36.3777 44.4669C37.0978 43.9473 37.3367 43.5362 37.0943 43.2335C36.5727 42.5893 35.772 42.0172 34.6922 41.5173C34.6093 41.4923 34.5265 41.4673 34.4437 41.4423C34.3838 41.4103 34.3194 41.4048 34.2505 41.4257C34.1127 41.4675 34.0877 41.5504 34.1755 41.6742C34.2243 41.835 34.358 41.9449 34.5765 42.0039ZM4.62749 49.9299C5.09786 49.6617 5.64759 49.407 6.27666 49.1659C6.89877 48.9018 7.61171 48.6477 8.41548 48.4037C12.4803 47.1696 16.9076 46.4275 21.6975 46.1772C19.9932 49.4035 18.1489 52.3336 16.1645 54.9677C12.9322 59.1092 9.84531 61.6642 6.90374 62.6325C6.24473 62.8576 5.63923 62.9286 5.08724 62.8453C4.53526 62.7621 4.02079 62.5546 3.54385 62.2228C2.71668 61.6463 2.10789 60.715 1.71745 59.4289C1.36188 58.2577 1.22797 57.0317 1.3157 55.751C1.42148 54.3645 1.74522 53.2002 2.28694 52.2582C2.84464 51.2863 3.62483 50.5102 4.62749 49.9299ZM22.953 45.2318C24.1795 42.8278 25.3517 40.3274 26.4696 37.7307C27.5874 35.134 28.6669 32.411 29.7081 29.5616C29.7881 29.4119 29.8555 29.3037 29.9105 29.2368C29.9585 29.147 30.0399 29.0847 30.1547 29.0498C30.3614 28.9871 30.5205 29.1394 30.632 29.5069C30.653 29.5757 30.6753 29.732 30.6991 29.9756C30.5475 36.9943 30.7557 41.9349 31.3238 44.7973C29.961 44.9351 28.5763 45.042 27.1697 45.1179C25.7861 45.1868 24.3805 45.2248 22.953 45.2318Z" fill="black"/>
<path d="M36.4523 52.9469C37.3312 52.4544 37.8401 52.024 37.9791 51.6557C38.853 49.6598 39.7447 47.8465 40.6542 46.216C41.5867 44.5785 42.5681 43.1017 43.5982 41.7857C43.747 41.6151 43.9133 41.5019 44.0971 41.4462C44.5104 41.3207 44.7729 41.4416 44.8844 41.8091C44.9263 41.9469 44.9267 42.0721 44.8857 42.1849C44.4986 43.3057 44.1564 44.4505 43.8591 45.6193C43.5778 46.7581 43.3334 47.9359 43.1259 49.1526C42.5768 52.0532 42.4844 54.3512 42.8486 56.0465C43.18 57.5511 43.7718 58.5503 44.6239 59.044C45.4023 59.4598 46.2368 59.4824 47.1276 59.1116C49.616 58.0552 51.6313 56.1015 53.1736 53.2505C53.7334 52.2027 54.1658 51.2312 54.4709 50.3359C54.776 49.4407 54.9308 48.6287 54.9353 47.9C54.9476 47.4448 54.9154 47.0909 54.8387 46.8383C54.6783 46.3101 54.403 46.1052 54.0125 46.2237C53.8518 46.2725 53.682 46.3743 53.5032 46.5289C53.3474 46.6765 53.2904 46.8192 53.3322 46.957C53.3531 47.0259 53.4095 47.0464 53.5014 47.0185C53.6162 46.9837 53.7495 46.9683 53.9012 46.9724C54.046 46.9535 54.1817 46.9875 54.3084 47.0745C54.4512 47.1315 54.5574 47.2748 54.6271 47.5045C54.9687 48.6297 54.3311 50.4536 52.7141 52.9761C51.2481 55.2522 49.9163 56.7726 48.7189 57.5375C48.4482 57.7199 48.1292 57.867 47.7617 57.9785C46.9809 58.2156 46.2727 58.1547 45.6371 57.7959C44.9346 57.3821 44.4689 56.6331 44.24 55.5488C43.8439 53.9134 43.866 51.549 44.3063 48.4556C44.7857 45.3254 45.5234 42.4679 46.5194 39.883C46.7384 39.3651 46.6697 39.0975 46.3134 39.0803C45.973 39.0331 45.585 39.2011 45.1495 39.5841C44.9248 39.7527 44.6935 40.0235 44.4557 40.3967C43.9283 40.8076 43.0126 41.9635 41.7085 43.8643C41.1549 44.6845 40.6163 45.5127 40.0926 46.3489C39.5849 47.1551 39.1037 47.9659 38.6489 48.7812C38.5599 48.9837 38.4465 49.106 38.3088 49.1478C38.125 49.2036 37.9948 49.1051 37.9181 48.8525C37.8624 48.6688 37.863 48.5056 37.92 48.3629C38.0655 47.19 38.2984 46.0157 38.6187 44.84C38.955 43.6343 39.406 42.3938 39.9719 41.1184C40.0199 41.0286 40.03 40.9377 40.0021 40.8459C39.9721 40.8299 39.8918 40.8543 39.7609 40.9191C39.5223 41.0417 39.3445 41.1584 39.2276 41.2691C39.1337 41.3728 39.0697 41.4926 39.0357 41.6283C38.7437 42.3189 38.4452 43.1119 38.1401 44.0071C37.8281 44.8794 37.5129 45.8654 37.1947 46.9653C36.5173 49.2778 36.0853 51.0769 35.8987 52.3625C35.8446 52.68 35.8774 52.8706 35.9971 52.9346C36.0619 53.0654 36.2137 53.0695 36.4523 52.9469Z" fill="black"/>
<path d="M50.9079 33.2836C51.2823 33.195 51.6682 33.1029 52.0656 33.0074C52.456 32.8889 52.8464 32.7703 53.2368 32.6518C62.1931 29.9327 70.6284 25.0016 78.5427 17.8585C80.7132 15.9204 82.1756 13.9214 82.9297 11.8615C83.6408 9.99019 83.7383 8.20485 83.2224 6.50544C82.5461 4.27784 81.0224 2.64611 78.6512 1.61026C76.1743 0.556377 73.466 0.47564 70.5265 1.36805C68.7582 1.9049 67.076 2.76674 65.48 3.95357C62.4826 6.1427 59.8112 9.19855 57.4655 13.1211C55.1358 17.0138 53.099 21.8709 51.355 27.6926C49.2508 28.8581 47.8174 30.2088 47.0546 31.7446C47.0136 31.8574 46.9841 31.9667 46.9661 32.0725C46.948 32.1783 46.9599 32.3001 47.0018 32.4379C47.0994 32.7594 47.3268 33.054 47.684 33.3218C48.0412 33.5896 48.391 33.7091 48.7334 33.6804C48.954 33.6636 49.1482 33.6423 49.3159 33.6164C49.5066 33.5836 49.6629 33.5613 49.7847 33.5494C48.9957 36.899 48.3173 39.9517 47.7493 42.7076C47.1974 45.4335 46.7585 47.9119 46.4325 50.1428C46.4304 50.2186 46.4468 50.314 46.4817 50.4288C46.5932 50.7962 46.7409 50.9521 46.9246 50.8963C46.9935 50.8754 47.0335 50.8005 47.0445 50.6718C47.1676 50.3334 47.266 50.2032 47.3398 50.2812C47.9967 48.7273 49.0074 46.7275 50.3717 44.2817C51.9989 41.3798 53.3509 39.3892 54.4278 38.3098C54.6316 38.0724 54.8369 37.9223 55.0436 37.8595C55.388 37.755 55.6091 37.8634 55.7067 38.1849C55.7625 38.3686 55.7618 38.5319 55.7048 38.6746C54.4927 41.9521 53.9438 44.5641 54.0583 46.5108C54.1038 47.0739 54.4534 47.4819 55.1071 47.735C55.6689 48.0159 56.1565 48.0936 56.5699 47.9681C57.9019 47.5637 59.6911 45.6912 61.9375 42.3505L62.1054 42.0362C62.0755 42.0202 62.0605 42.0122 62.0605 42.0122C62.0535 41.9892 62.0351 41.9698 62.0051 41.9538C61.9891 41.9837 61.9502 42.0206 61.8883 42.0645C61.8493 42.1014 61.8024 42.1533 61.7474 42.2201C59.7839 44.9231 58.2396 46.4454 57.1143 46.787C56.4942 46.9752 56.0936 46.7708 55.9123 46.1737C55.6613 45.347 55.7882 43.7408 56.293 41.3553C56.5173 40.3592 56.7465 39.4619 56.9806 38.6635C57.2078 37.8421 57.4434 37.131 57.6874 36.5302C57.7034 36.5002 57.6974 36.4393 57.6695 36.3475C57.6138 36.1638 57.4581 36.0229 57.2027 35.9249C56.9402 35.8039 56.7436 35.7758 56.6127 35.8406C55.8717 36.2913 55.4727 36.588 55.4157 36.7307C54.6788 37.0297 53.5084 38.3381 51.9046 40.656C51.255 41.6558 50.6284 42.6487 50.0248 43.6345C49.4211 44.6204 48.8634 45.5923 48.3516 46.5503C48.1277 46.9694 47.9553 47.3102 47.8343 47.5727C47.7134 47.8352 47.6094 48.0297 47.5225 48.1565C48.0974 45.4236 48.6647 42.831 49.2244 40.3786C49.7841 37.9263 50.3453 35.5613 50.9079 33.2836ZM51.0401 32.6039C52.664 25.8906 54.6969 20.1944 57.1389 15.5152C59.5739 10.8131 62.4765 7.07258 65.8466 4.29374C67.229 3.14668 68.7584 2.31868 70.4349 1.80972C73.0069 1.02886 75.4667 1.03456 77.814 1.82681C80.1405 2.55017 81.607 3.91083 82.2136 5.90878C83.1409 8.96313 81.6379 12.6048 77.7048 16.8337C75.8517 18.826 73.8623 20.6589 71.7369 22.3325C69.6114 24.0062 67.3453 25.5469 64.9385 26.9548C63.034 28.0346 61.1441 28.9971 59.2688 29.8424C57.4094 30.6577 55.5267 31.3546 53.6206 31.9333C53.1613 32.0728 52.71 32.1972 52.2667 32.3067C51.8464 32.4093 51.4375 32.5083 51.0401 32.6039ZM49.9514 32.8592C49.8825 32.8801 49.7412 32.9104 49.5275 32.9502C49.3368 32.983 49.0738 33.0253 48.7383 33.077C48.2122 33.1614 47.8898 33.0085 47.7713 32.6181C47.6946 32.3655 47.7202 32.1194 47.8482 31.8799C48.1471 31.2123 48.5668 30.5707 49.1073 29.9551C49.6638 29.3096 50.3825 28.7027 51.2634 28.1343C51.0452 28.9028 50.819 29.6863 50.5849 30.4847C50.3737 31.2762 50.1625 32.0677 49.9514 32.8592Z" fill="black"/>
<path d="M80.1703 95.9592C80.9482 94.1429 81.7066 92.3451 82.4456 90.5657C83.2005 88.7563 83.9704 86.955 84.7553 85.1617C85.8641 82.6178 86.9463 80.358 88.0019 78.3822C89.0504 76.3834 90.0689 74.657 91.0572 73.2033C93.6854 69.22 96.1936 66.8658 98.582 66.1407C98.7887 66.078 98.9989 66.0267 99.2125 65.9869C99.4262 65.9471 99.6548 65.9154 99.8984 65.8916C100.195 65.8768 100.326 65.812 100.291 65.6972C100.277 65.6512 100.108 65.5897 99.7833 65.5126C99.1834 65.5192 98.5734 65.6166 97.9533 65.8049C94.6693 66.8019 91.2041 70.7132 87.5577 77.5388C86.4612 79.6274 85.257 82.1877 83.9452 85.2195C82.6264 88.2284 81.2069 91.7318 79.6868 95.7298C79.5227 96.1809 79.3374 96.4378 79.1307 96.5006C78.924 96.5633 78.7235 96.3985 78.5291 96.006C78.3855 95.6985 78.2879 95.377 78.2363 95.0415C78.0029 93.2814 78.2134 89.1417 78.8678 82.6225C79.1474 79.5779 79.3093 77.0959 79.3536 75.1762C79.4138 73.2266 79.3334 71.8465 79.1124 71.0357C78.8425 70.0642 78.239 69.357 77.302 68.9142C76.4178 68.4803 75.5154 68.4407 74.5948 68.7955C72.0124 69.9557 69.7502 72.3355 67.8081 75.9349C65.834 79.5942 65.101 82.8391 65.6091 85.6695C65.6957 86.1198 65.9869 86.5832 66.4827 87.0597C66.757 87.3025 66.9875 87.4833 67.1741 87.6022C67.3767 87.6912 67.5538 87.7378 67.7056 87.7419C67.968 87.8628 68.2141 87.8885 68.4437 87.8187C68.7673 87.6453 68.8977 87.4552 68.835 87.2485C68.7931 87.1107 68.6539 87.0652 68.4173 87.1119C68.2196 87.1218 68.0519 87.1476 67.9141 87.1895C67.7693 87.2083 67.6555 87.2053 67.5727 87.1802C66.9768 87.0351 66.5739 86.4927 66.3639 85.5532C65.9083 83.3088 66.5471 80.4562 68.2805 76.9954C70.1579 73.2652 72.4691 70.7576 75.2142 69.4727C75.3221 69.4149 75.4334 69.3686 75.5482 69.3337C75.6631 69.2989 75.7664 69.2675 75.8583 69.2396C76.8687 68.9328 77.5273 69.2847 77.8341 70.2951L77.9805 70.7774C77.9924 70.8992 78.0053 70.9831 78.0193 71.029C78.0332 71.0749 78.0472 71.1208 78.0611 71.1668C78.4663 72.7493 78.3034 76.6739 77.5723 82.9405C77.1967 86.1647 76.9733 88.8159 76.9019 90.8943C76.8237 92.9496 76.8965 94.4701 77.1204 95.4555C77.1831 95.6622 77.2838 95.8699 77.4224 96.0786C77.5611 96.2874 77.7191 96.4776 77.8967 96.6495C78.0903 96.7914 78.2998 96.9033 78.5254 96.9853C78.744 97.0444 78.9681 97.039 79.1977 96.9693C79.6111 96.8438 79.9353 96.5071 80.1703 95.9592Z" fill="black"/>
<path d="M100.56 79.1972C100.594 79.0614 100.568 78.8937 100.483 78.694C100.413 78.4643 100.304 78.2716 100.157 78.1157C100.002 77.9369 99.8338 77.8375 99.6521 77.8174C99.4704 77.7973 99.3076 77.922 99.1637 78.1914C98.663 79.0206 98.1077 80.042 97.4979 81.2555C96.8882 82.4689 96.2394 83.7193 95.5517 85.0066C94.887 86.2869 94.1888 87.5398 93.4572 88.7651C92.7417 89.9606 92.0197 90.9698 91.2914 91.7929C90.8149 92.2887 90.389 92.4556 90.0138 92.2936C89.6545 92.1017 89.4698 91.4931 89.4595 90.4679C89.432 89.7991 89.4995 88.9885 89.6618 88.0363C89.8472 87.0771 90.0715 86.0809 90.3347 85.0479C90.598 84.0149 90.8877 82.9864 91.2039 81.9624C91.543 80.9314 91.879 80.0142 92.212 79.2108C92.335 78.8725 92.3642 78.6379 92.2994 78.5071C92.2276 78.3533 92.1158 78.2744 91.9641 78.2703C91.8124 78.2662 91.6436 78.33 91.4579 78.4616C91.2881 78.5633 91.1667 78.7005 91.0937 78.8732C90.8997 79.3083 90.6797 79.8641 90.4337 80.5408C90.2036 81.1875 89.9601 81.9136 89.7029 82.719C89.4458 83.5244 89.2027 84.3758 88.9734 85.2731C88.7602 86.1404 88.57 87.0008 88.4026 87.8542C88.2513 88.6777 88.154 89.4722 88.1105 90.2379C88.09 90.9965 88.137 91.6469 88.2514 92.1891C88.3798 92.7772 88.7019 93.2186 89.2178 93.5135C89.7267 93.7853 90.2599 93.7238 90.8172 93.3289C91.1497 93.1025 91.6008 92.5643 92.1704 91.7141C92.756 90.8341 93.3746 89.8562 94.0263 88.7805C94.6709 87.6819 95.3041 86.5867 95.9257 85.495C96.5634 84.3734 97.0742 83.4534 97.458 82.7349C97.7459 82.196 97.9936 82.0205 98.2011 82.2083C98.4016 82.3732 98.4853 82.6487 98.4521 83.035C98.4098 83.4742 98.3551 83.9549 98.2878 84.4769C98.2366 84.969 98.2003 85.4691 98.179 85.9772C98.1577 86.4853 98.1628 86.998 98.1944 87.5151C98.2489 88.0252 98.3425 88.4985 98.4749 88.9348C98.5446 89.1645 98.6718 89.3767 98.8563 89.5715C99.0569 89.7363 99.2654 89.8862 99.4819 90.0211C99.7144 90.1261 99.948 90.1932 100.183 90.2223C100.417 90.2514 100.596 90.2221 100.72 90.1343C100.984 89.9288 101.245 89.674 101.504 89.3697C101.779 89.0354 101.992 88.7072 102.145 88.3848C102.344 88.0485 102.393 87.7955 102.291 87.6257C102.206 87.426 102.017 87.5082 101.727 87.8724C101.617 88.0061 101.464 88.1652 101.269 88.3498C101.068 88.5113 100.893 88.6395 100.747 88.7342C100.6 88.829 100.442 88.9272 100.272 89.0289C100.125 89.1236 99.9906 89.1769 99.8688 89.1888C99.7401 89.1778 99.6133 89.0908 99.4887 88.928C99.387 88.7583 99.3078 88.4562 99.2512 88.0219C99.1807 87.5417 99.1786 86.9153 99.245 86.1427C99.3114 85.3701 99.4088 84.5755 99.5372 83.759C99.6815 82.9126 99.8443 82.0856 100.026 81.2782C100.207 80.4707 100.385 79.777 100.56 79.1972Z" fill="black"/>
<path d="M105.455 89.5244C107.386 88.6124 109.342 86.5887 111.325 83.4535C112.347 81.864 113.041 80.4744 113.408 79.2847C113.79 78.0651 113.883 77.0085 113.687 76.1149C113.673 76.069 113.644 76.015 113.6 75.9531C113.556 75.8912 113.512 75.8293 113.469 75.7673C113.402 75.7124 113.381 75.6435 113.406 75.5607C113.529 75.2223 113.946 74.9451 114.658 74.729C115.003 74.6244 115.154 74.5032 115.112 74.3654C115.098 74.3195 114.912 74.3258 114.554 74.3845C113.582 74.6544 112.714 74.8928 111.949 75.1C111.207 75.3001 110.569 75.4689 110.034 75.6062C109.981 75.5972 109.928 75.5882 109.875 75.5792C109.845 75.5632 109.804 75.5507 109.751 75.5417C108.952 75.3075 108.373 75.2577 108.012 75.3922C107.514 75.5686 107.085 75.9746 106.727 76.6102C106.594 76.7509 106.481 76.8351 106.39 76.863C106.367 76.87 105.934 77.014 105.091 77.2949C104.57 77.4782 104.292 77.6377 104.258 77.7735C104.224 77.9092 104.217 78.0115 104.238 78.0804C104.28 78.2182 104.429 78.3361 104.684 78.4341C104.933 78.5092 105.178 78.5727 105.419 78.6248C105.571 78.6289 105.626 78.7253 105.583 78.9139C103.681 83.5546 102.996 86.8349 103.529 88.7549C103.585 88.9386 103.683 89.0969 103.823 89.2298C103.987 89.3557 104.155 89.4552 104.328 89.5281C104.523 89.5942 104.72 89.6223 104.918 89.6124C105.122 89.6255 105.302 89.5962 105.455 89.5244ZM104.419 87.8451C104.789 84.2716 105.857 80.975 107.624 77.9555C107.899 77.6213 108.063 77.4587 108.116 77.4677C108.48 77.1814 108.897 76.9421 109.365 76.7498C109.826 76.5345 110.343 76.3776 110.915 76.2792C111.983 76.0803 112.542 76.3497 112.59 77.0874C112.755 78.8685 111.999 81.1295 110.323 83.8706C108.748 86.5309 107.218 88.2244 105.733 88.9511C105.04 89.312 104.61 89.2169 104.442 88.6657C104.366 88.4131 104.358 88.1396 104.419 87.8451Z" fill="black"/>
<path d="M113.669 85.4882C114.548 84.9957 115.057 84.5653 115.196 84.197C116.07 82.2011 116.962 80.3878 117.871 78.7573C118.804 77.1198 119.785 75.643 120.815 74.327C120.964 74.1564 121.13 74.0432 121.314 73.9874C121.728 73.8619 121.99 73.9829 122.102 74.3504C122.143 74.4881 122.144 74.6134 122.103 74.7262C121.716 75.847 121.373 76.9918 121.076 78.1605C120.795 79.2994 120.55 80.4772 120.343 81.6939C119.794 84.5945 119.701 86.8924 120.066 88.5878C120.397 90.0924 120.989 91.0915 121.841 91.5853C122.619 92.0011 123.454 92.0236 124.345 91.6529C126.833 90.5965 128.848 88.6427 130.391 85.7918C130.95 84.744 131.383 83.7724 131.688 82.8772C131.993 81.982 132.148 81.17 132.152 80.4413C132.165 79.9861 132.132 79.6321 132.056 79.3795C131.895 78.8513 131.62 78.6465 131.23 78.765C131.069 78.8138 130.899 78.9155 130.72 79.0701C130.564 79.2178 130.507 79.3605 130.549 79.4983C130.57 79.5672 130.627 79.5877 130.718 79.5598C130.833 79.5249 130.967 79.5096 131.118 79.5136C131.263 79.4948 131.399 79.5288 131.526 79.6158C131.668 79.6728 131.774 79.8161 131.844 80.0457C132.186 81.171 131.548 82.9949 129.931 85.5174C128.465 87.7935 127.133 89.3139 125.936 90.0787C125.665 90.2612 125.346 90.4083 124.979 90.5198C124.198 90.7569 123.49 90.696 122.854 90.3372C122.152 89.9234 121.686 89.1744 121.457 88.0901C121.061 86.4546 121.083 84.0903 121.523 80.9969C122.003 77.8667 122.74 75.0092 123.737 72.4243C123.955 71.9064 123.887 71.6388 123.53 71.6216C123.19 71.5744 122.802 71.7424 122.367 72.1254C122.142 72.2939 121.911 72.5648 121.673 72.938C121.145 73.3489 120.23 74.5048 118.926 76.4056C118.372 77.2258 117.833 78.054 117.31 78.8902C116.802 79.6964 116.321 80.5072 115.866 81.3224C115.777 81.525 115.664 81.6472 115.526 81.6891C115.342 81.7448 115.212 81.6464 115.135 81.3938C115.079 81.2101 115.08 81.0469 115.137 80.9042C115.283 79.7313 115.516 78.557 115.836 77.3813C116.172 76.1756 116.623 74.935 117.189 73.6597C117.237 73.5698 117.247 73.479 117.219 73.3871C117.189 73.3712 117.109 73.3956 116.978 73.4604C116.739 73.583 116.562 73.6996 116.445 73.8104C116.351 73.9141 116.287 74.0339 116.253 74.1696C115.961 74.8602 115.662 75.6531 115.357 76.5484C115.045 77.4206 114.73 78.4067 114.412 79.5066C113.734 81.8191 113.302 83.6182 113.116 84.9038C113.062 85.2212 113.094 85.4119 113.214 85.4759C113.279 85.6067 113.431 85.6108 113.669 85.4882Z" fill="black"/>
<path d="M134.265 69.3408C131.916 70.0289 129.652 71.6191 127.474 74.1113C125.303 76.6264 124.013 79.1501 123.603 81.6825C123.514 82.1356 123.519 82.523 123.617 82.8445C123.868 83.6712 124.407 83.9591 125.233 83.7081C125.486 83.6314 125.694 83.5307 125.857 83.406C126.432 82.9053 127.115 82.2215 127.905 81.3545C128.688 80.4646 129.595 79.3617 130.625 78.0456C131.435 76.997 132.108 76.1155 132.644 75.4011C133.195 74.6568 133.611 74.0417 133.889 73.5557C133.881 73.8592 133.884 74.1971 133.896 74.5694C133.925 74.9119 133.941 75.2957 133.945 75.721C134.007 78.4862 133.955 80.5461 133.789 81.9007C127.297 85.3013 121.285 89.2083 115.753 93.6218C107.606 100.083 103.284 105.634 102.787 110.274C102.684 111.259 102.762 112.176 103.02 113.025C103.843 115.735 105.975 117.759 109.416 119.097C112.834 120.442 116.169 120.521 119.42 119.333C128.877 115.785 134.061 103.326 134.972 81.9554C136.214 81.2525 137.652 80.5776 139.286 79.9309C140.951 79.3001 142.828 78.6675 144.918 78.0331C145.446 77.8727 145.917 77.7298 146.33 77.6043C146.773 77.4948 147.159 77.4027 147.488 77.3281C148.641 77.0783 149.343 77.3668 149.594 78.1935C149.901 79.204 149.568 80.5464 148.597 82.2209C148.416 82.4513 148.347 82.6355 148.388 82.7733C148.395 82.7962 148.422 82.8007 148.468 82.7868C148.606 82.745 148.75 82.6008 148.901 82.3543C149.809 81.0502 150.325 80.0658 150.45 79.401C150.495 79.1365 150.476 78.8665 150.392 78.5909C150.301 78.2924 150.145 78.0262 149.924 77.7925C149.702 77.5587 149.438 77.3504 149.132 77.1675C148.856 77.0006 148.555 76.8786 148.231 76.8015C147.929 76.7174 147.645 76.6908 147.379 76.7216C147.043 76.7732 146.651 76.8423 146.2 76.9289C145.78 77.0314 145.283 77.1698 144.709 77.3441C141.585 78.2923 138.361 79.6098 135.036 81.2966C135.12 79.0136 135.178 77.0146 135.209 75.2996C135.263 73.5776 135.306 72.1097 135.339 70.8958C135.462 70.5575 135.505 70.2436 135.467 69.954C135.411 69.7703 135.279 69.6225 135.069 69.5105C134.883 69.3916 134.69 69.3371 134.493 69.3469C134.433 69.3149 134.357 69.3129 134.265 69.3408ZM103.896 110.954C104.261 106.704 107.669 101.694 114.119 95.9237C119.485 91.2096 126.048 86.7214 133.808 82.4592C133.739 85.8662 133.48 89.1429 133.03 92.2891C132.604 95.4284 132.001 98.4832 131.223 101.453C128.677 111.08 124.657 116.84 119.163 118.734C116.012 119.841 112.866 119.805 109.725 118.627C106.749 117.499 104.891 115.718 104.152 113.284C103.929 112.549 103.844 111.772 103.896 110.954ZM133.262 73.5957C132.928 74.1485 132.489 74.8086 131.944 75.5758C131.416 76.3132 130.782 77.1578 130.042 78.1096C128.209 80.4972 127.051 81.7642 126.569 81.9106C126.018 82.078 125.631 81.7942 125.407 81.0593C125.373 80.9445 125.345 80.8526 125.324 80.7837C125.326 80.7079 125.321 80.609 125.309 80.4872C125.359 78.917 126.048 77.178 127.375 75.2702C128.645 73.5051 130.059 72.1729 131.616 71.2736C132.358 70.8229 132.868 70.6051 133.149 70.6203C133.317 70.5944 133.463 70.7882 133.589 71.2016C133.573 71.2315 133.575 71.2809 133.596 71.3498C133.603 71.3728 133.606 71.3843 133.606 71.3843C133.629 71.3773 133.644 71.3853 133.651 71.4083C133.833 72.2559 133.704 72.9851 133.262 73.5957Z" fill="black"/>
<path d="M124.777 28.1808C125.411 28.0078 125.975 27.8705 126.467 27.7689C126.981 27.6288 127.423 27.5245 127.794 27.4558C129.204 27.2664 130.061 27.731 130.366 28.8495C130.77 30.3308 130.382 32.1253 129.203 34.2329C129.043 34.6011 128.984 34.8608 129.025 35.0119C129.034 35.0422 129.068 35.0491 129.128 35.0326C129.249 34.9996 129.409 34.81 129.607 34.4638C130.687 32.7079 131.279 31.426 131.384 30.6181C131.453 30.2746 131.429 29.8912 131.314 29.468C131.149 28.8634 130.826 28.3343 130.346 27.8808C129.865 27.4273 129.348 27.0809 128.796 26.8418C128.969 26.7621 129.021 26.7154 128.953 26.7016C128.884 26.6879 128.77 26.6865 128.61 26.6975C128.443 26.6782 128.264 26.6782 128.074 26.6974C127.877 26.6864 127.739 26.6588 127.662 26.6149C126.994 26.667 126.404 26.7631 125.89 26.9031C125.368 27.013 124.707 27.2094 123.907 27.4923C122.296 27.8988 120.554 28.3574 118.68 28.8683C116.805 29.3791 114.901 29.8982 112.966 30.4256C111.031 30.9529 109.146 31.483 107.31 32.0158C105.496 32.5102 103.849 32.9593 102.368 33.363C103.027 31.4944 103.952 29.9432 105.143 28.7095C106.324 27.4456 107.576 26.4386 108.898 25.6886C110.22 24.9385 111.516 24.3905 112.786 24.0444C114.055 23.6984 115.07 23.4869 115.828 23.4101C116.139 23.3579 116.383 23.2425 116.562 23.0639C116.771 22.8771 116.9 22.6957 116.949 22.5199C116.991 22.3138 116.945 22.1475 116.813 22.0211C116.704 21.8562 116.485 21.7696 116.158 21.7613C115.482 21.7831 114.762 21.7033 113.998 21.5218C113.264 21.3321 112.547 21.0242 111.846 20.5981C111.176 20.1638 110.567 19.599 110.021 18.9036C109.504 18.2 109.14 17.3412 108.929 16.3271C108.692 15.2223 108.737 14.2523 109.061 13.4169C109.407 12.543 109.89 11.8107 110.508 11.22C111.127 10.6292 111.805 10.2006 112.545 9.93419C113.284 9.66774 113.955 9.56616 114.556 9.62946C115.249 9.66805 115.847 9.89486 116.349 10.3099C116.883 10.7167 117.266 11.2293 117.499 11.8477C117.667 12.2242 117.845 12.4028 118.035 12.3836C118.247 12.3259 118.399 12.1707 118.493 11.9179C118.586 11.6651 118.614 11.349 118.575 10.9698C118.567 10.5823 118.423 10.2319 118.143 9.91858C117.736 9.37988 117.16 8.93597 116.416 8.58684C115.701 8.22948 114.917 8.15103 114.062 8.35151C113.268 8.53551 112.454 8.88714 111.621 9.4064C110.78 9.89544 110.022 10.5081 109.346 11.2445C108.7 11.9727 108.162 12.8012 107.734 13.73C107.327 14.6203 107.13 15.567 107.144 16.57C107.177 17.4055 107.34 18.1241 107.634 18.726C107.928 19.3279 108.262 19.8377 108.635 20.2555C109.039 20.665 109.442 21.01 109.843 21.2903C110.266 21.5323 110.597 21.7343 110.836 21.8965C110.982 21.9542 111.027 22.1205 110.972 22.3953C110.939 22.6316 110.799 22.8322 110.552 22.997C109.56 23.5273 108.57 24.1867 107.583 24.9752C106.627 25.7555 105.71 26.6224 104.834 27.5759C103.987 28.5211 103.221 29.5254 102.537 30.5888C101.844 31.622 101.289 32.6827 100.871 33.7709C99.8516 34.0813 98.9941 34.3312 98.2988 34.5207C97.5733 34.7185 97.0896 34.8503 96.8477 34.9162C96.2514 35.1112 95.8749 35.2788 95.7182 35.4189C95.5231 35.5371 95.4227 35.8242 95.4171 36.2804C95.4061 36.4783 95.4899 36.6666 95.6685 36.8452C95.8471 37.0239 96.0477 37.1641 96.2703 37.2658C96.4929 37.3675 96.7223 37.4348 96.9586 37.4679C97.1565 37.4789 97.2953 37.3923 97.375 37.2082C97.4987 36.9472 97.6266 36.7012 97.7585 36.4704C97.852 36.2176 98.0073 36.0129 98.2244 35.8563C98.3288 35.7629 98.5776 35.6626 98.9706 35.5555C99.3553 35.4181 99.8459 35.252 100.442 35.0569C99.9033 36.8926 99.7121 38.6335 99.8685 40.2796C100.025 41.9258 100.477 43.3453 101.224 44.5381C101.933 45.7089 102.886 46.5857 104.084 47.1684C105.304 47.7128 106.698 47.8202 108.264 47.4906C108.506 47.4247 108.763 47.3547 109.035 47.2805C109.307 47.2064 109.575 47.1171 109.839 47.0127C110.191 47.8262 110.571 48.5669 110.98 49.2347C111.428 49.9246 111.893 50.4963 112.373 50.9498C112.885 51.3951 113.408 51.707 113.944 51.8858C114.51 52.0562 115.087 52.0288 115.675 51.8036C116.678 51.4328 117.492 50.7239 118.116 49.6769C118.74 48.63 119.233 47.5212 119.596 46.3506C119.712 46.0593 119.808 45.757 119.885 45.4437C120 45.1525 120.081 44.8543 120.128 44.5493C120.247 44.0299 120.354 43.5297 120.45 43.0488C120.538 42.5377 120.623 42.076 120.706 41.6638C120.948 40.5261 121.193 39.339 121.44 38.1024C121.679 36.8355 121.905 35.6374 122.117 34.508C122.351 33.34 122.544 32.2642 122.698 31.2804C122.874 30.2581 123.016 29.4076 123.123 28.7288L124.777 28.1808ZM108.27 38.0385C108.086 39.0305 108.065 40.2054 108.207 41.5629C108.38 42.9123 108.713 44.2507 109.204 45.5781C109.045 45.5891 108.875 45.6193 108.693 45.6687C108.542 45.7099 108.387 45.736 108.227 45.7469C107.136 45.9144 106.133 45.7494 105.218 45.2518C104.303 44.7543 103.554 44.0328 102.972 43.0873C102.381 42.1117 101.973 40.9725 101.748 39.6699C101.515 38.337 101.543 36.9492 101.831 35.5065C101.851 35.3388 101.874 35.1863 101.902 35.0489C101.951 34.873 101.985 34.7013 102.005 34.5337C103.024 34.2233 104.169 33.8951 105.439 33.549C106.73 33.1645 108.026 32.7951 109.326 32.4407C110.656 32.0782 111.956 31.7239 113.226 31.3778C114.495 31.0318 115.644 30.7187 116.672 30.4385C117.7 30.1584 118.561 29.9235 119.257 29.734C119.982 29.5363 120.436 29.4127 120.617 29.3633C120.95 29.2726 121.152 29.2988 121.223 29.4417C121.316 29.5461 121.337 29.8003 121.285 30.2043C121.219 30.6769 121.116 31.1922 120.975 31.75C120.857 32.2694 120.724 32.7929 120.575 33.3205C120.418 33.8179 120.269 34.281 120.126 34.7096C119.974 35.1081 119.844 35.4035 119.734 35.5958C119.368 36.2801 118.911 37.1031 118.361 38.0648C117.803 38.9963 117.12 39.9457 116.312 40.9129C115.526 41.8416 114.598 42.7278 113.529 43.5713C112.482 44.3763 111.282 44.9793 109.93 45.3803C109.556 44.2481 109.261 43.0457 109.044 41.7733C108.819 40.4707 108.698 39.2532 108.682 38.121L108.27 38.0385ZM119.349 43.836C119.176 44.6302 118.973 45.4326 118.739 46.2433C118.505 47.0539 118.221 47.7972 117.885 48.4732C117.55 49.1492 117.175 49.7386 116.76 50.2415C116.375 50.7361 115.93 51.0685 115.424 51.2388C114.918 51.4091 114.417 51.4159 113.919 51.2592C113.452 51.0942 112.997 50.796 112.555 50.3645C112.151 49.9549 111.768 49.4423 111.405 48.8267C111.042 48.2111 110.709 47.5226 110.404 46.7613C111.443 46.2833 112.378 45.7847 113.211 45.2654C114.066 44.7077 114.899 44.0098 115.71 43.1718C116.512 42.3035 117.311 41.2415 118.105 39.9857C118.921 38.6915 119.826 37.0647 120.818 35.1055L119.349 43.836ZM108.27 38.0385L108.67 38.0757C108.623 37.6662 108.565 37.4546 108.497 37.4408C108.42 37.3968 108.344 37.5961 108.27 38.0385Z" fill="white"/>
</svg>
